/usr/bin/ffmpeg -hide_banner -y -y -r 14 -start_number 0 -start_number_range 1 -i /media/robert/BulkStorage/BobbysDocuments/Projects/Twitch/ChatAvatars/ChatParty/chatparty/assets/Bunny/hot_pink/frame%04d.png -i /media/robert/BulkStorage/BobbysDocuments/Projects/Twitch/ChatAvatars/ChatParty/chatparty/assets/Bunny/hot_pink/KritaTempPalettegen_%06d.png -lavfi [0:v][1:v]paletteuse=dither=sierra2_4a:diff_mode=none -f gif -loop 0 -gifflags +transdiff /media/robert/BulkStorage/BobbysDocuments/Projects/Twitch/ChatAvatars/ChatParty/chatparty/assets/Bunny/hot_pink/away.gif
=====================================================
Input #0, image2, from '/media/robert/BulkStorage/BobbysDocuments/Projects/Twitch/ChatAvatars/ChatParty/chatparty/assets/Bunny/hot_pink/frame%04d.png':
  Duration: 00:00:00.20, start: 0.000000, bitrate: N/A
  Stream #0:0: Video: png, rgba(pc, gbr/unknown/unknown), 128x128 [SAR 2834:2834 DAR 1:1], 25 fps, 25 tbr, 25 tbn
Input #1, image2, from '/media/robert/BulkStorage/BobbysDocuments/Projects/Twitch/ChatAvatars/ChatParty/chatparty/assets/Bunny/hot_pink/KritaTempPalettegen_%06d.png':
  Duration: 00:00:00.04, start: 0.000000, bitrate: N/A
  Stream #1:0: Video: png, rgba(pc, gbr/unknown/unknown), 16x16 [SAR 1:1 DAR 1:1], 25 fps, 25 tbr, 25 tbn
Stream mapping:
  Stream #0:0 (png) -> paletteuse
  Stream #1:0 (png) -> paletteuse
  paletteuse:default -> Stream #0:0 (gif)
Press [q] to stop, [?] for help
Output #0, gif, to '/media/robert/BulkStorage/BobbysDocuments/Projects/Twitch/ChatAvatars/ChatParty/chatparty/assets/Bunny/hot_pink/away.gif':
  Metadata:
    encoder         : Lavf60.16.100
  Stream #0:0: Video: gif, pal8(pc, gbr/unknown/unknown, progressive), 128x128 [SAR 1:1 DAR 1:1], q=2-31, 200 kb/s, 14 fps, 100 tbn
    Metadata:
      encoder         : Lavc60.31.102 gif
frame=    1 fps=0.0 q=-0.0 size=       0kB time=00:00:00.07 bitrate=   0.0kbits/s speed=2.18x    [out#0/gif @ 0x5a74decd1800] video:6kB audio:0kB subtitle:0kB other streams:0kB global headers:0kB muxing overhead: 0.306560%
frame=    5 fps=0.0 q=-0.0 Lsize=       6kB time=00:00:00.28 bitrate= 183.2kbits/s speed=8.24x    
